<?xml version="1.0" encoding="UTF-8"?>
<!DOCTYPE svg PUBLIC "-//W3C//DTD SVG 1.1//EN" "http://www.w3.org/Graphics/SVG/1.1/DTD/svg11.dtd">
<!-- Creator: CorelDRAW 2021 (64-Bit) -->
<svg xmlns="http://www.w3.org/2000/svg" xml:space="preserve" width="3.54331in" height="1.06299in" version="1.1" style="shape-rendering:geometricPrecision; text-rendering:geometricPrecision; image-rendering:optimizeQuality; fill-rule:evenodd; clip-rule:evenodd"
viewBox="0 0 3543.31 1062.99"
 xmlns:xlink="http://www.w3.org/1999/xlink"
 xmlns:xodm="http://www.corel.com/coreldraw/odm/2003">
 <defs>
  <style type="text/css">
   <![CDATA[
    .fil1 {fill:white}
    .fil0 {fill:white;fill-rule:nonzero}
   ]]>
  </style>
 </defs>
 <g id="Layer_x0020_1">
  <metadata id="CorelCorpID_0Corel-Layer"/>
  <g id="_1952423658288">
   <path class="fil0" d="M54.24 963.2l487.41 -759.88 211.68 0 183.46 759.88 -213.85 0 -135.69 -657.84 84.67 0 -390.79 657.84 -226.88 0zm212.76 -147.63l86.84 -158.49 371.26 0 23.88 158.49 -481.98 0z"/>
   <path id="_1" class="fil0" d="M1007.35 963.2l118.32 -590.53c13.75,-67.31 43.78,-121.58 90.1,-162.83 46.31,-41.25 108.55,-61.87 186.71,-61.87 28.22,0 54.64,2.53 79.24,7.6 24.61,5.07 45.59,13.03 62.96,23.88l-79.24 144.38c-18.09,-11.58 -38.35,-17.37 -60.79,-17.37 -23.16,0 -41.07,6.33 -53.73,19 -12.67,12.67 -21.89,32.39 -27.68,59.17l-8.69 44.5 -10.85 82.5 -90.1 451.58 -206.25 0zm-4.34 -412.5l31.48 -154.15 425.53 0 -30.39 154.15 -426.62 0z"/>
   <path id="_2" class="fil0" d="M1437.22 963.2l117.24 -588.36 195.39 0 -33.65 167.17 -19.54 -47.76c26.05,-47.04 60.43,-80.33 103.13,-99.87 42.7,-19.54 92.63,-29.31 149.8,-29.31l-35.82 185.63c-8.69,-1.45 -16.65,-2.35 -23.88,-2.72 -7.24,-0.36 -14.83,-0.54 -22.8,-0.54 -44.87,0 -81.59,10.67 -110.18,32.02 -28.59,21.35 -47.58,56.63 -56.99,105.84l-56.45 277.9 -206.25 0z"/>
   <path id="_3" class="fil0" d="M1915.94 963.2l117.24 -588.36 205.17 0 -117.24 588.36 -205.17 0zm248.59 -653.5c-36.19,0 -64.95,-9.95 -86.3,-29.85 -21.35,-19.9 -32.02,-43.96 -32.02,-72.19 0,-33.29 12.12,-61.15 36.37,-83.59 24.24,-22.43 56.27,-33.65 96.07,-33.65 36.19,0 65.13,9.41 86.84,28.22 21.71,18.82 32.57,42.34 32.57,70.56 0,35.46 -12.3,64.41 -36.91,86.84 -24.61,22.43 -56.81,33.65 -96.61,33.65z"/>
   <path id="_4" class="fil0" d="M2583.55 972.98c-62.96,0 -117.6,-11.22 -163.91,-33.65 -46.32,-22.43 -82.32,-53.73 -108.01,-93.9 -25.69,-40.17 -38.54,-87.02 -38.54,-140.58 0,-65.13 15.56,-123.21 46.68,-174.23 31.12,-51.02 74.18,-91.37 129.18,-121.04 55,-29.67 117.96,-44.51 188.89,-44.51 66.58,0 124.29,14.11 173.14,42.34 48.85,28.22 84.13,67.3 105.84,117.24l-175.86 83.59c-10.85,-27.5 -26.24,-47.4 -46.14,-59.7 -19.9,-12.3 -42.52,-18.45 -67.85,-18.45 -27.5,0 -52.28,7.06 -74.36,21.17 -22.07,14.11 -39.26,33.11 -51.56,56.99 -12.3,23.88 -18.45,52.11 -18.45,84.67 0,34.01 9.77,61.52 29.31,82.5 19.54,20.99 48.13,31.48 85.76,31.48 26.78,0 50.84,-5.97 72.19,-17.91 21.35,-11.94 39.62,-31.66 54.82,-59.16l150.89 91.19c-28.22,47.76 -67.85,85.03 -118.87,111.81 -51.02,26.78 -108.74,40.17 -173.15,40.17z"/>
   <path id="_5" class="fil0" d="M3138.26 972.98c-52.11,0 -101.31,-5.61 -147.63,-16.83 -46.31,-11.22 -82.14,-24.79 -107.47,-40.71l74.91 -144.38c27.5,17.37 59.7,30.76 96.61,40.17 36.91,9.41 72.73,14.11 107.47,14.11 34.02,0 58.26,-3.8 72.73,-11.4 14.47,-7.6 21.71,-17.91 21.71,-30.94 0,-11.58 -7.42,-20.08 -22.25,-25.51 -14.83,-5.43 -33.83,-9.95 -56.99,-13.57 -23.16,-3.62 -47.58,-8.32 -73.27,-14.11 -25.69,-5.79 -50.12,-14.11 -73.28,-24.97 -23.16,-10.85 -42.15,-26.23 -56.99,-46.13 -14.84,-19.9 -22.26,-46.5 -22.26,-79.79 0,-47.04 13.75,-86.48 41.25,-118.33 27.5,-31.84 64.95,-55.72 112.35,-71.65 47.4,-15.92 100.77,-23.88 160.11,-23.88 41.98,0 82.5,3.98 121.58,11.94 39.08,7.96 73.09,19.54 102.04,34.74l-72.73 144.37c-28.94,-17.37 -58.62,-29.13 -89.01,-35.28 -30.4,-6.15 -58.98,-9.22 -85.76,-9.22 -34.01,0 -58.26,4.34 -72.73,13.02 -14.48,8.69 -21.71,19.18 -21.71,31.48 0,10.86 7.42,19.36 22.25,25.51 14.84,6.15 33.65,11.22 56.45,15.2 22.8,3.98 47.22,8.69 73.28,14.11 26.05,5.43 50.48,13.57 73.27,24.42 22.8,10.86 41.61,26.06 56.45,45.59 14.83,19.54 22.26,45.95 22.26,79.24 0,46.31 -13.93,85.4 -41.8,117.24 -27.86,31.84 -65.31,55.72 -112.35,71.65 -47.04,15.92 -99.87,23.88 -158.49,23.88z"/>
   <path class="fil1" d="M2083.24 123.8c-24.25,22.44 -36.38,50.31 -36.38,83.61 0,28.23 10.68,52.3 32.03,72.21 21.36,19.91 50.13,29.86 86.33,29.86 39.81,0 72.03,-11.22 96.65,-33.66 24.61,-22.44 36.92,-51.4 36.92,-86.87 0,-28.23 -10.86,-51.76 -32.58,-70.58 -21.72,-18.82 -50.67,-28.24 -86.87,-28.24 -39.82,0 -71.85,11.22 -96.1,33.67z"/>
  </g>
 </g>
</svg>
